<?xml version="1.0" encoding="UTF-8" standalone="no"?>
<!DOCTYPE svg PUBLIC "-//W3C//DTD SVG 1.1//EN" "http://www.w3.org/Graphics/SVG/1.1/DTD/svg11.dtd">
<svg width="100%" height="100%" viewBox="0 0 52 52" version="1.1" xmlns="http://www.w3.org/2000/svg" xmlns:xlink="http://www.w3.org/1999/xlink" xml:space="preserve" xmlns:serif="http://www.serif.com/" style="fill-rule:evenodd;clip-rule:evenodd;stroke-linejoin:round;stroke-miterlimit:2;">
    <g id="tram-bold" transform="matrix(1,0,0,1,-61,-26)">
        <path d="M70,43L70,40L71,40L71,39L72,39L72,38L73,38L73,37L76,37L76,36L85,36L85,33L79,33L79,32L77,32L77,29L79,29L79,28L95,28L95,29L97,29L97,32L95,32L95,33L89,33L89,36L98,36L98,37L101,37L101,38L102,38L102,39L103,39L103,40L104,40L104,43L105,43L105,63L104,63L104,67L103,67L103,68L102,68L102,69L101,69L101,70L98,70L98,72L99,72L99,73L100,73L100,76L97,76L97,75L96,75L96,74L95,74L95,73L94,73L94,72L93,72L93,70L81,70L81,72L80,72L80,73L79,73L79,74L78,74L78,75L77,75L77,76L74,76L74,73L75,73L75,72L76,72L76,70L73,70L73,69L72,69L72,68L71,68L71,67L70,67L70,63L69,63L69,43L70,43ZM75,42L74,42L74,50L100,50L100,42L99,42L99,41L75,41L75,42ZM74,55L74,65L75,65L75,66L99,66L99,65L100,65L100,55L74,55ZM93,62L93,59L94,59L94,58L97,58L97,59L98,59L98,62L97,62L97,63L94,63L94,62L93,62ZM80,59L81,59L81,62L80,62L80,63L77,63L77,62L76,62L76,59L77,59L77,58L80,58L80,59Z"/>
    </g>
</svg>
